<?xml version="1.0" encoding="UTF-8"?>
<svg version="1.1" xmlns="http://www.w3.org/2000/svg" width="554" height="327">
<path d="M0 0 C2.38063785 0.5263315 4.75678496 1.07324561 7.12890625 1.63671875 C10.42250856 2.4698354 10.42250856 2.4698354 13.23046875 2.82421875 C15.88903718 3.33495574 17.38787585 3.81995416 19.5703125 5.44921875 C24.60180399 13.06779093 27.71951402 20.74214666 27.66796875 29.96875 C27.66474609 30.99033203 27.66152344 32.01191406 27.65820312 33.06445312 C27.64982422 34.11955078 27.64144531 35.17464844 27.6328125 36.26171875 C27.62830078 37.33615234 27.62378906 38.41058594 27.61914062 39.51757812 C27.60738979 42.16151558 27.59096037 44.80533827 27.5703125 47.44921875 C28.46762085 46.60460083 28.46762085 46.60460083 29.38305664 45.74291992 C41.66065355 34.29483318 41.66065355 34.29483318 50.2578125 33.94921875 C54.30480948 34.20041167 57.03223568 35.42746057 60.5703125 37.44921875 C62.27456715 38.08525637 63.98329191 38.70939092 65.6953125 39.32421875 C71.09208991 41.46348187 73.36820453 43.8646866 75.8203125 49.13671875 C77.47144371 56.42921493 77.49494479 63.89991124 73.5703125 70.44921875 C70.77041692 73.98681137 67.72418216 77.22667186 64.5703125 80.44921875 C63.64798828 81.41214844 63.64798828 81.41214844 62.70703125 82.39453125 C59.72013548 85.45695772 56.60861999 88.32752846 53.3828125 91.13671875 C52.71894531 91.71808594 52.05507813 92.29945312 51.37109375 92.8984375 C49.9624019 94.11156259 48.5219905 95.28787635 47.0703125 96.44921875 C44.83375959 99.4312893 45.37333819 101.78246613 45.5703125 105.44921875 C50.14207619 126.92587609 64.32623278 150.17778399 77.5703125 167.44921875 C78.8903125 166.78921875 80.2103125 166.12921875 81.5703125 165.44921875 C80.30288988 162.07140217 78.85109621 159.09113143 76.92578125 156.04296875 C76.41571533 155.2226416 75.90564941 154.40231445 75.38012695 153.55712891 C74.84476318 152.69651855 74.30939941 151.8359082 73.7578125 150.94921875 C62.72811312 132.90002406 58.81863416 116.20494513 63.53515625 95.2109375 C68.75712135 76.23451338 79.10413965 58.99650913 96.28515625 48.7265625 C100.87019762 46.16364194 104.34674566 45.97354825 109.5703125 46.44921875 C114.89367466 48.25715307 116.6294415 50.80074524 119.5703125 55.44921875 C120.4159375 56.06796875 121.2615625 56.68671875 122.1328125 57.32421875 C126.10024464 60.78300574 127.25824736 64.75605388 127.85546875 69.91015625 C128.16383633 78.62489225 126.08753232 83.99780607 120.3203125 90.51171875 C118.75041987 92.17037752 117.16771244 93.81703456 115.5703125 95.44921875 C114.64798828 96.41214844 114.64798828 96.41214844 113.70703125 97.39453125 C110.72013548 100.45695772 107.60861999 103.32752846 104.3828125 106.13671875 C103.71894531 106.71808594 103.05507813 107.29945312 102.37109375 107.8984375 C100.9624019 109.11156259 99.5219905 110.28787635 98.0703125 111.44921875 C95.82221811 114.44667793 96.35189828 116.75877165 96.5703125 120.44921875 C98.87466514 129.78898431 102.59530106 138.22591805 107.5703125 146.44921875 C126.24405198 131.35778847 143.76104506 115.33661534 160.7578125 98.38671875 C161.31336823 97.83384186 161.86892395 97.28096497 162.4413147 96.71133423 C164.0433047 95.11521177 165.64143747 93.51533186 167.23828125 91.9140625 C168.16922607 90.98198975 169.1001709 90.04991699 170.05932617 89.08959961 C172.38856298 86.64033407 174.50565081 84.12296622 176.5703125 81.44921875 C179.32488968 81.82916043 180.39051824 82.25658205 182.3203125 84.32421875 C183.5703125 86.44921875 183.5703125 86.44921875 183.5703125 89.44921875 C184.1478125 88.93359375 184.7253125 88.41796875 185.3203125 87.88671875 C187.5703125 86.44921875 187.5703125 86.44921875 189.6328125 86.51171875 C192.13772378 87.7237726 193.11787077 89.09764643 194.5703125 91.44921875 C196.13656245 96.14796859 196.38643009 99.41515468 194.546875 104 C191.4537672 110.04095916 187.67857216 114.95968603 183.01171875 119.8671875 C181.10053474 121.8884557 179.28498568 123.93402587 177.47607422 126.04394531 C173.38535652 130.72832966 169.03852785 135.12506836 164.63671875 139.515625 C163.79995102 140.35334946 162.96318329 141.19107391 162.10105896 142.05418396 C160.34163146 143.8142881 158.58095597 145.57314552 156.8190918 147.33081055 C154.14061839 150.00392847 151.46752377 152.68234126 148.79492188 155.36132812 C147.07584135 157.07974778 145.35645061 158.79785717 143.63671875 160.515625 C142.84689102 161.30747696 142.05706329 162.09932892 141.24330139 162.91517639 C137.00125713 167.13957096 132.6819923 171.18269789 128.09922791 175.03672791 C126.45172024 176.39181906 126.45172024 176.39181906 125.5703125 178.44921875 C125.96970017 180.5474309 125.96970017 180.5474309 126.5703125 182.44921875 C149.39613347 170.99839162 169.25858202 153.86421372 188.04345703 136.74072266 C189.59987823 135.32926668 191.16384277 133.92601451 192.73999023 132.53662109 C199.63035674 126.44504074 206.15175093 120.02117416 212.640625 113.50927734 C214.45979727 111.68469087 216.28432718 109.86558247 218.109375 108.046875 C219.28157117 106.87401882 220.45345753 105.7008529 221.625 104.52734375 C222.43286453 103.72251556 222.43286453 103.72251556 223.25704956 102.90142822 C226.24477795 99.89516017 228.98319156 96.81751833 231.5703125 93.44921875 C234.32488968 93.82916043 235.39051824 94.25658205 237.3203125 96.32421875 C238.5703125 98.44921875 238.5703125 98.44921875 238.5703125 101.44921875 C239.1684375 101.53171875 239.7665625 101.61421875 240.3828125 101.69921875 C243.21716653 102.67099728 244.0157168 103.93225429 245.5703125 106.44921875 C247.13656245 111.14796859 247.38643009 114.41515468 245.546875 119 C242.4537672 125.04095916 238.67857216 129.95968603 234.01171875 134.8671875 C232.10053474 136.8884557 230.28498568 138.93402587 228.47607422 141.04394531 C224.38535652 145.72832966 220.03852785 150.12506836 215.63671875 154.515625 C214.79995102 155.35334946 213.96318329 156.19107391 213.10105896 157.05418396 C211.34163146 158.8142881 209.58095597 160.57314552 207.8190918 162.33081055 C205.14061839 165.00392847 202.46752377 167.68234126 199.79492188 170.36132812 C198.07584135 172.07974778 196.35645061 173.79785717 194.63671875 175.515625 C193.84689102 176.30747696 193.05706329 177.09932892 192.24330139 177.91517639 C187.51110802 182.62768073 182.6472427 187.11147838 177.5703125 191.44921875 C176.45231708 192.42224958 175.33499805 193.39605886 174.21875 194.37109375 C167.85704742 199.88008812 161.40110197 205.21625652 154.75146484 210.37402344 C150.77242465 213.47142662 146.89957598 216.6689036 143.0703125 219.94921875 C138.08492519 224.219051 132.98079972 228.3014678 127.79638672 232.32641602 C123.83791703 235.41380337 119.99862811 238.61097307 116.1953125 241.88671875 C102.29605067 253.78453803 87.47928931 264.60743276 71.1328125 272.88671875 C70.15731445 273.38220215 70.15731445 273.38220215 69.16210938 273.88769531 C60.93401354 277.92563546 52.86687057 280.01889895 43.8125 277.76171875 C39.48358852 276.24723077 37.14323214 275.41725539 34.7578125 271.38671875 C34.3659375 270.41734375 33.9740625 269.44796875 33.5703125 268.44921875 C31.03842602 266.69598938 31.03842602 266.69598938 28.5703125 265.44921875 C27.07532337 262.4592405 27.45453804 259.748791 27.5703125 256.44921875 C27.9003125 255.45921875 28.2303125 254.46921875 28.5703125 253.44921875 C27.49652344 254.00351562 26.42273438 254.5578125 25.31640625 255.12890625 C23.88037359 255.86100133 22.44416632 256.59275398 21.0078125 257.32421875 C19.95110352 257.87142578 19.95110352 257.87142578 18.87304688 258.4296875 C10.66070105 262.59262778 2.28327598 265.33958927 -6.87109375 262.76171875 C-9.45596931 261.76594004 -11.93250294 260.64845233 -14.4296875 259.44921875 C-15.50605469 258.94390625 -16.58242188 258.43859375 -17.69140625 257.91796875 C-26.26519842 253.77819691 -26.26519842 253.77819691 -27.4296875 251.44921875 C-27.93201313 245.17014839 -27.03418401 239.66614209 -23.01245117 234.69873047 C-18.68274107 230.29092177 -14.31361269 227.33128946 -8.8046875 224.57421875 C-7.9892749 224.15422607 -7.1738623 223.7342334 -6.33374023 223.30151367 C-0.16568007 220.18030544 6.13392644 217.4316586 12.5078125 214.76171875 C30.78347477 207.31381228 30.78347477 207.31381228 43.0078125 192.44921875 C44.37546734 185.1550596 43.64324609 180.30031218 40.1953125 173.88671875 C39.83590576 173.19400879 39.47649902 172.50129883 39.10620117 171.78759766 C36.28151169 166.47416037 33.07017039 161.49063421 29.65283203 156.54370117 C23.91225374 148.17776507 18.92313085 139.34123118 13.83203125 130.57128906 C12.79757327 128.83144604 11.69310532 127.13340797 10.5703125 125.44921875 C10.39604736 126.0827124 10.22178223 126.71620605 10.04223633 127.36889648 C1.47033618 158.34319638 -8.25781062 188.91067763 -19.1796875 219.13671875 C-19.52554901 220.0967984 -19.87141052 221.05687805 -20.22775269 222.04605103 C-24.02335774 232.55309243 -27.97941322 242.98200403 -32.1953125 253.328125 C-32.55913025 254.2222258 -32.922948 255.1163266 -33.29779053 256.03752136 C-39.48083518 271.03865886 -46.64125101 286.50110875 -62.1171875 293.69921875 C-69.19889184 295.30262351 -75.6376087 294.94426811 -82.4296875 292.44921875 C-85.42501864 291.98392459 -88.42089016 291.57529551 -91.4296875 291.20703125 C-105.06772549 287.76200603 -114.80086022 268.79298176 -121.64746094 257.42773438 C-134.17063986 236.17566764 -144.16164064 213.65940665 -152.4296875 190.44921875 C-152.65593811 189.81536255 -152.88218872 189.18150635 -153.11529541 188.52844238 C-162.59581873 161.89217725 -170.11548939 134.74748688 -177.4296875 107.44921875 C-177.65138107 108.20564163 -177.87307465 108.96206451 -178.10148621 109.7414093 C-184.52358879 131.65009618 -190.96371931 153.55343563 -197.4296875 175.44921875 C-197.93066956 177.14606812 -197.93066956 177.14606812 -198.44177246 178.87719727 C-206.95636285 207.69103976 -216.08172573 236.30100744 -225.33984375 264.8828125 C-225.69348999 265.97475922 -226.04713623 267.06670593 -226.41149902 268.19174194 C-227.08319338 270.26101518 -227.75699052 272.32960732 -228.43313599 274.39743042 C-229.12443958 276.51444316 -229.80944995 278.63351725 -230.48947144 280.75418091 C-230.83511139 281.81893646 -231.18075134 282.88369202 -231.53686523 283.98071289 C-231.84365707 284.93393936 -232.15044891 285.88716583 -232.46653748 286.86927795 C-234.35030864 291.91523961 -236.79937801 295.37390824 -241.3671875 298.38671875 C-244.69813906 299.54235501 -246.93479362 299.90507447 -250.4296875 299.44921875 C-251.05101562 298.94132812 -251.67234375 298.4334375 -252.3125 297.91015625 C-254.94656547 296.09255388 -256.05929844 296.32159205 -259.1796875 296.69921875 C-263.43339052 296.82469672 -265.52176037 296.17884356 -268.8046875 293.44921875 C-272.74496086 289.46099075 -276.33036581 285.21993463 -276.4841156 279.38287354 C-275.68609279 271.51444855 -273.71182713 263.98414062 -271.65234375 256.37109375 C-271.45719744 255.64136101 -271.26205112 254.91162827 -271.06099129 254.15978241 C-266.13139018 235.76484363 -260.44015797 217.60716976 -254.72882843 199.44324493 C-253.25459872 194.74833691 -251.78930422 190.05064325 -250.32373047 185.35302734 C-249.72187225 183.42416087 -249.12000453 181.49529736 -248.51812744 179.56643677 C-248.21841286 178.60588505 -247.91869827 177.64533333 -247.60990143 176.65567398 C-246.69864404 173.73644017 -245.78643528 170.81750522 -244.8739624 167.89865112 C-238.80550462 148.48228218 -232.80988412 129.04370695 -226.83140945 109.59947205 C-225.81255676 106.28701111 -224.79233373 102.97497295 -223.77211857 99.66293144 C-222.8114518 96.54340604 -221.85178891 93.42357254 -220.89245033 90.30363846 C-220.45569261 88.88363706 -220.01863701 87.46372723 -219.58122826 86.04392624 C-216.79037044 76.99033428 -216.79037044 76.99033428 -214.12225342 67.90008545 C-213.90299383 67.13773779 -213.68373425 66.37539013 -213.45783043 65.58994102 C-213.03903492 64.12858554 -212.62487333 62.66589059 -212.21631813 61.20163918 C-209.56485064 51.96196658 -205.78354597 45.33543786 -197.4296875 40.44921875 C-194.53442231 39.48413035 -192.57174631 39.28464473 -189.5546875 39.26171875 C-188.71164063 39.24753906 -187.86859375 39.23335937 -187 39.21875 C-184.14131794 39.4750756 -182.07775738 40.36962103 -179.4296875 41.44921875 C-177.5184058 41.73751264 -175.60076761 41.9857654 -173.6796875 42.19921875 C-167.32113499 43.21098353 -163.38325994 45.45033482 -158.4296875 49.44921875 C-157.67945313 49.9803125 -156.92921875 50.51140625 -156.15625 51.05859375 C-151.23085873 54.85770101 -148.24828259 59.08795717 -145.54296875 64.63671875 C-145.02618561 65.68670547 -145.02618561 65.68670547 -144.4989624 66.75790405 C-140.72119322 74.6351569 -137.91758456 82.79100289 -135.1796875 91.07421875 C-134.62247081 92.73036026 -134.0645939 94.38627976 -133.50610352 96.04199219 C-129.64382945 107.547536 -125.98647112 119.11542385 -122.3671875 130.69921875 C-110.54747817 168.5275351 -97.69769489 207.19005732 -77.4296875 241.44921875 C-77.18476563 240.59585938 -76.93984375 239.7425 -76.6875 238.86328125 C-74.11492311 230.25845509 -71.10187375 221.92773144 -67.8046875 213.57421875 C-44.60222732 154.10733343 -25.57097533 87.84154664 -19.50366211 24.23071289 C-17.87065283 7.90725297 -17.87065283 7.90725297 -13.1796875 1.26171875 C-8.90564711 -1.55526242 -4.92719889 -0.79126998 0 0 Z M92.8828125 203.26171875 C86.4669278 208.75350115 79.87146519 213.98115701 73.20849609 219.16796875 C69.29995453 222.2249026 65.43709552 225.33975498 61.5703125 228.44921875 C65.0670977 229.61481382 65.50495515 229.31817106 68.703125 227.82421875 C69.50540527 227.45079346 70.30768555 227.07736816 71.13427734 226.69262695 C71.97941895 226.28230225 72.82456055 225.87197754 73.6953125 225.44921875 C74.55463379 225.03567139 75.41395508 224.62212402 76.29931641 224.19604492 C82.2967871 221.23836471 87.73250108 218.12766697 92.5703125 213.44921875 C93.08722656 212.97097656 93.60414063 212.49273437 94.13671875 212 C97.94645059 208.03831304 98.78923338 203.69527253 99.5703125 198.44921875 C97.24182693 198.44921875 94.64775617 201.7356051 92.8828125 203.26171875 Z " fill="#5C0671" transform="translate(290.4296875,15.55078125)"/>
<path d="M0 0 C0.72703125 0.06445312 1.4540625 0.12890625 2.203125 0.1953125 C5.01113848 0.72062114 6.65582961 1.33266754 9 3 C21.57230137 21.85845205 17.57820394 44.33402142 13.53515625 65.41796875 C13.02894616 67.94642161 12.51725279 70.47378305 12 73 C11.75362793 74.20736816 11.50725586 75.41473633 11.25341797 76.65869141 C-26.76031693 259.47264923 -26.76031693 259.47264923 -67.1875 288.5 C-74.68988521 292.50127211 -82.84749875 293.45925535 -91.125 291.125 C-101.79279274 286.38616306 -108.87705252 272.48857054 -115 263 C-115.40831055 262.36803711 -115.81662109 261.73607422 -116.23730469 261.08496094 C-130.06164104 239.35776891 -140.43916152 215.2078739 -149 191 C-149.2241156 190.37041382 -149.4482312 189.74082764 -149.67913818 189.09216309 C-159.15356631 162.44765331 -166.68419087 135.30428083 -174 108 C-174.22169357 108.75642288 -174.44338715 109.51284576 -174.67179871 110.29219055 C-181.09390129 132.20087743 -187.53403181 154.10421688 -194 176 C-194.50098206 177.69684937 -194.50098206 177.69684937 -195.01208496 179.42797852 C-203.52667535 208.24182101 -212.65203823 236.85178869 -221.91015625 265.43359375 C-222.26380249 266.52554047 -222.61744873 267.61748718 -222.98181152 268.74252319 C-223.65350588 270.81179643 -224.32730302 272.88038857 -225.00344849 274.94821167 C-225.69475208 277.06522441 -226.37976245 279.1842985 -227.05978394 281.30496216 C-227.40542389 282.36971771 -227.75106384 283.43447327 -228.10717773 284.53149414 C-228.41396957 285.48472061 -228.72076141 286.43794708 -229.03684998 287.4200592 C-230.92062114 292.46602086 -233.36969051 295.92468949 -237.9375 298.9375 C-241.26845156 300.09313626 -243.50510612 300.45585572 -247 300 C-247.62132812 299.49210937 -248.24265625 298.98421875 -248.8828125 298.4609375 C-251.51687797 296.64333513 -252.62961094 296.8723733 -255.75 297.25 C-260.00370302 297.37547797 -262.09207287 296.72962481 -265.375 294 C-269.31527336 290.011772 -272.90067831 285.77071588 -273.0544281 279.93365479 C-272.25640529 272.0652298 -270.28213963 264.53492187 -268.22265625 256.921875 C-268.02750994 256.19214226 -267.83236362 255.46240952 -267.63130379 254.71056366 C-262.70170268 236.31562488 -257.01047047 218.15795101 -251.29914093 199.99402618 C-249.82491122 195.29911816 -248.35961672 190.6014245 -246.89404297 185.90380859 C-246.29218475 183.97494212 -245.69031703 182.04607861 -245.08843994 180.11721802 C-244.78872536 179.1566663 -244.48901077 178.19611458 -244.18021393 177.20645523 C-243.26895654 174.28722142 -242.35674778 171.36828647 -241.4442749 168.44943237 C-235.37581712 149.03306343 -229.38019662 129.5944882 -223.40172195 110.1502533 C-222.38286926 106.83779236 -221.36264623 103.5257542 -220.34243107 100.21371269 C-219.3817643 97.09418729 -218.42210141 93.97435379 -217.46276283 90.85441971 C-217.02600511 89.43441831 -216.58894951 88.01450848 -216.15154076 86.59470749 C-213.36068294 77.54111553 -213.36068294 77.54111553 -210.69256592 68.4508667 C-210.47330633 67.68851904 -210.25404675 66.92617138 -210.02814293 66.14072227 C-209.60934742 64.67936679 -209.19518583 63.21667184 -208.78663063 61.75242043 C-206.13516314 52.51274783 -202.35385847 45.88621911 -194 41 C-191.10473481 40.0349116 -189.14205881 39.83542598 -186.125 39.8125 C-185.28195313 39.79832031 -184.43890625 39.78414062 -183.5703125 39.76953125 C-180.71163044 40.02585685 -178.64806988 40.92040228 -176 42 C-174.0887183 42.28829389 -172.17108011 42.53654665 -170.25 42.75 C-163.89144749 43.76176478 -159.95357244 46.00111607 -155 50 C-154.24976563 50.53109375 -153.49953125 51.0621875 -152.7265625 51.609375 C-147.80117123 55.40848226 -144.81859509 59.63873842 -142.11328125 65.1875 C-141.59649811 66.23748672 -141.59649811 66.23748672 -141.0692749 67.3086853 C-137.29150572 75.18593815 -134.48789706 83.34178414 -131.75 91.625 C-131.19278331 93.28114151 -130.6349064 94.93706101 -130.07641602 96.59277344 C-126.21414195 108.09831725 -122.55678362 119.6662051 -118.9375 131.25 C-107.11779067 169.07831635 -94.26800739 207.74083857 -74 242 C-73.75507813 241.14664063 -73.51015625 240.29328125 -73.2578125 239.4140625 C-70.68523561 230.80923634 -67.67218625 222.47851269 -64.375 214.125 C-41.17253982 154.65811468 -22.14128783 88.39232789 -16.07397461 24.78149414 C-14.44096533 8.45803422 -14.44096533 8.45803422 -9.75 1.8125 C-6.1109408 -0.58597084 -4.31048232 -0.57473098 0 0 Z " fill="#5C0671" transform="translate(287,15)"/>
<path d="M0 0 C1.58409994 0.11487748 3.16728963 0.24234508 4.75 0.375 C5.63171875 0.44460937 6.5134375 0.51421875 7.421875 0.5859375 C10.19109139 1.03069044 11.73078308 1.34584803 14 3 C15.39157536 5.27319453 16.55983678 7.41713696 17.6875 9.8125 C17.99494141 10.42931641 18.30238281 11.04613281 18.61914062 11.68164062 C22.09170379 18.83192934 22.18239572 25.20066434 22.1875 33 C22.19974609 33.98484375 22.21199219 34.9696875 22.22460938 35.984375 C22.22654297 36.93828125 22.22847656 37.8921875 22.23046875 38.875 C22.23457764 39.73867188 22.23868652 40.60234375 22.24291992 41.4921875 C21.74498067 46.63272221 19.39574637 49.98093141 16.25 53.9375 C4.89751389 69.24584334 0.84102538 88.22841109 2 107 C2.65634441 110.11854252 3.44999714 113.09399127 4.44140625 116.12109375 C6.13241922 124.83631445 2.17085174 133.90365092 -0.3125 142.1875 C-0.53241608 142.92652557 -0.75233215 143.66555115 -0.97891235 144.42697144 C-38.90883529 271.78555406 -38.90883529 271.78555406 -62.1875 288.5 C-69.75748796 292.53732691 -77.38742807 293.25086696 -85.6875 291 C-86.450625 290.67 -87.21375 290.34 -88 290 C-85.5067231 288.3378154 -83.55260795 287.38429444 -80.8125 286.3125 C-64.0267702 278.85822129 -57.03224625 259.53677488 -50.83331299 243.45277405 C-47.40162312 234.45672058 -44.11332407 225.40823028 -40.84820557 216.35064697 C-40.01931473 214.05352725 -39.18660204 211.75782595 -38.35302734 209.46240234 C-20.67442992 160.6960655 -5.87059215 110.95739406 4 60 C4.19062012 59.04673828 4.38124023 58.09347656 4.57763672 57.11132812 C6.40065878 47.87282929 7.26860448 38.85941407 7.375 29.4375 C7.38909912 28.54458252 7.40319824 27.65166504 7.41772461 26.73168945 C7.34882696 17.40608799 4.78022165 9.912091 0 2 C0 1.34 0 0.68 0 0 Z " fill="#08F429" transform="translate(296,18)"/>
<path d="M0 0 C0.99 0.33 1.98 0.66 3 1 C4.12290172 3.50169257 4.99753248 5.83669062 5.8125 8.4375 C6.05419922 9.11232422 6.29589844 9.78714844 6.54492188 10.48242188 C9.55337319 19.91600225 5.36951667 29.65006817 2.71875 38.80859375 C2.3933725 39.94328094 2.067995 41.07796814 1.73275757 42.24703979 C0.84556896 45.33410974 -0.04571087 48.41995271 -0.93997955 51.50497818 C-1.50481032 53.45409949 -2.06840731 55.40357421 -2.6317749 57.3531189 C-15.38309486 101.45306716 -28.82560325 145.33369494 -43.3057251 188.89840698 C-43.95029243 190.84953354 -44.58283176 192.80462241 -45.21435547 194.76000977 C-45.56127441 195.82920654 -45.90819336 196.89840332 -46.265625 198 C-46.69149902 199.32837891 -46.69149902 199.32837891 -47.12597656 200.68359375 C-48.9831796 205.60570058 -51.4877889 209.00258417 -55.9375 211.9375 C-59.34026973 213.11805276 -61.43818244 213.60626682 -65 213 C-67.875 210.5 -67.875 210.5 -70 208 C-68.88625 207.01 -68.88625 207.01 -67.75 206 C-62.18623645 200.40124768 -60.01577649 192.57418828 -57.70703125 185.21484375 C-57.40430801 184.2679216 -57.10158478 183.32099945 -56.78968811 182.34538269 C-55.79023813 179.21161492 -54.80091444 176.07476458 -53.8125 172.9375 C-53.09999771 170.68921887 -52.38726485 168.44101079 -51.67431641 166.19287109 C-49.80620207 160.29249663 -47.9488932 154.38877563 -46.09490967 148.48394775 C-45.04806484 145.15293992 -43.99754672 141.82311546 -42.94580078 138.49365234 C-35.77215149 115.76374208 -28.82255583 92.97749619 -22.2109375 70.078125 C-21.96365276 69.22190929 -21.71636803 68.36569359 -21.46158981 67.48353195 C-18.99405594 58.93551894 -16.53556482 50.38499801 -14.09836006 41.82828522 C-13.18609124 38.62848649 -12.26947173 35.42994262 -11.35225296 32.23155975 C-10.92779127 30.74681065 -10.50547767 29.26144532 -10.08558273 27.77539825 C-3.11835212 3.11835212 -3.11835212 3.11835212 0 0 Z " fill="#08F429" transform="translate(105,102)"/>
<path d="M0 0 C2.9640578 1.3044304 3.91606405 1.87109836 5.75 4.6875 C7.55680209 9.47552554 7.93279607 12.703343 5.96875 17.5390625 C2.89812308 23.59502115 -0.8909591 28.50964576 -5.55859375 33.41796875 C-7.46977776 35.43923695 -9.28532682 37.48480712 -11.09423828 39.59472656 C-15.18495598 44.27911091 -19.53178465 48.67584961 -23.93359375 53.06640625 C-24.77036148 53.90413071 -25.60712921 54.74185516 -26.46925354 55.60496521 C-28.22868104 57.36506935 -29.98935653 59.12392677 -31.7512207 60.8815918 C-34.42969411 63.55470972 -37.10278873 66.23312251 -39.77539062 68.91210938 C-41.49447115 70.63052903 -43.21386189 72.34863842 -44.93359375 74.06640625 C-45.72342148 74.85825821 -46.51324921 75.65011017 -47.32701111 76.46595764 C-52.05920448 81.17846198 -56.9230698 85.66225963 -62 90 C-63.11799542 90.97303083 -64.23531445 91.94684011 -65.3515625 92.921875 C-71.71326508 98.43086937 -78.16921053 103.76703777 -84.81884766 108.92480469 C-88.79788785 112.02220787 -92.67073652 115.21968485 -96.5 118.5 C-101.48538731 122.76983225 -106.58951278 126.85224905 -111.77392578 130.87719727 C-115.73239547 133.96458462 -119.57168439 137.16175432 -123.375 140.4375 C-137.27426183 152.33531928 -152.09102319 163.15821401 -168.4375 171.4375 C-169.08783203 171.76782227 -169.73816406 172.09814453 -170.40820312 172.43847656 C-178.57471964 176.44619664 -186.82690484 178.752641 -195.79296875 176.20703125 C-202.56141618 173.65787572 -202.56141618 173.65787572 -205 170 C-205 169.01 -205 168.02 -205 167 C-204.38125 167.165 -203.7625 167.33 -203.125 167.5 C-185.50750601 170.31879904 -169.72390392 160.99496748 -155.78125 151.06640625 C-151.78640139 148.12990694 -147.89020092 145.07292328 -144 142 C-142.83046325 141.09371336 -141.65991809 140.18872628 -140.48828125 139.28515625 C-131.80698623 132.56236336 -123.35073104 125.56695791 -114.89355469 118.56591797 C-109.36575678 113.9945802 -103.80739846 109.46044007 -98.23046875 104.94921875 C-87.11680483 95.95486119 -76.07880866 86.90311454 -65.51171875 77.265625 C-64.1240542 76.01392136 -62.73048885 74.76833842 -61.31329346 73.5501709 C-56.06739554 69.03588288 -51.11880387 64.27961929 -46.22265625 59.390625 C-45.41187119 58.58316833 -44.60108612 57.77571167 -43.76573181 56.94378662 C-42.06101959 55.24410819 -40.35763401 53.54309825 -38.65551758 51.84082031 C-36.07849647 49.26598292 -33.49358146 46.69925484 -30.90820312 44.1328125 C-10.61374465 24.98551732 -10.61374465 24.98551732 0 0 Z " fill="#08F429" transform="translate(530,117)"/>
<path d="M0 0 C7.94834296 -0.86395032 13.44956939 2.4731615 19.8046875 6.99609375 C25.30939977 11.5172771 28.88000251 15.89600292 31.9453125 22.25390625 C32.45575104 23.29670242 32.45575104 23.29670242 32.97650146 24.36056519 C36.72580847 32.22234461 39.52023731 40.36639382 42.25 48.625 C42.80721669 50.28114151 43.3650936 51.93706101 43.92358398 53.59277344 C47.78585805 65.09831725 51.44321638 76.6662051 55.0625 88.25 C72.37186505 143.95054811 72.37186505 143.95054811 98.359375 195.91015625 C100.03313858 199.06241099 100.42799314 200.31298878 99.8125 203.75 C99.69519531 204.48734375 99.57789063 205.2246875 99.45703125 205.984375 C99 208 99 208 98 211 C82.22797614 204.44539268 70.90053983 169.42979154 64.75338745 154.66497803 C52.77475914 125.58345497 42.9682275 95.68231374 33.5625 65.6875 C33.31172699 64.88782806 33.06095398 64.08815613 32.80258179 63.26425171 C32.55601837 62.47797394 32.30945496 61.69169617 32.05541992 60.8815918 C23.2334631 28.50995888 23.2334631 28.50995888 3 3 C1.98242172 2.01789286 0.97445315 1.02491027 0 0 Z " fill="#08F429" transform="translate(113,58)"/>
<path d="M0 0 C4.87384699 0.45338112 7.60413282 1.42057244 11 5 C14.61238733 11.25665485 14.86845028 18.06944359 13.63671875 25.0625 C11.68400491 31.65124875 6.69371861 36.20407312 2 41 C1.38511719 41.64195313 0.77023437 42.28390625 0.13671875 42.9453125 C-2.85017702 46.00773897 -5.96169251 48.87830971 -9.1875 51.6875 C-9.85136719 52.26886719 -10.51523437 52.85023437 -11.19921875 53.44921875 C-12.6079106 54.66234384 -14.048322 55.8386576 -15.5 57 C-17.73655291 59.98207055 -17.19697431 62.33324738 -17 66 C-13.06199692 84.49945632 -1.64478882 101.74898009 8.16625977 117.61791992 C10.45516654 121.3294607 12.58238986 124.84723619 14 129 C11 131 11 131 8.47363281 130.87158203 C5.40846009 129.79157151 4.88319848 128.90932239 3.421875 126.0546875 C2.98810547 125.23299072 2.55433594 124.41129395 2.10742188 123.56469727 C1.65947266 122.67709717 1.21152344 121.78949707 0.75 120.875 C-0.22147087 119.02603467 -1.19545147 117.17838591 -2.171875 115.33203125 C-2.65076172 114.4188916 -3.12964844 113.50575195 -3.62304688 112.56494141 C-5.45691534 109.14887367 -7.45687222 105.85598303 -9.5 102.5625 C-30.57981839 67.98373903 -30.57981839 67.98373903 -29 54 C-26.875 51.15625 -26.875 51.15625 -24 48.5 C-23.49887695 48.02788086 -22.99775391 47.55576172 -22.48144531 47.06933594 C-19.01513143 43.82894155 -15.439965 40.70447807 -11.84375 37.609375 C-4.92213828 31.56762918 1.46103268 25.37006472 2.16796875 15.703125 C2.21254843 10.10391732 1.59150365 5.37132483 0 0 Z " fill="#08F429" transform="translate(353,55)"/>
<path d="M0 0 C2.5606326 1.20029653 3.52445987 2.54853027 5 4.9375 C6.56624995 9.63624984 6.81611759 12.90343593 4.9765625 17.48828125 C1.8834547 23.52924041 -1.89174034 28.44796728 -6.55859375 33.35546875 C-8.46977776 35.37673695 -10.28532682 37.42230712 -12.09423828 39.53222656 C-16.18495598 44.21661091 -20.53178465 48.61334961 -24.93359375 53.00390625 C-25.77036148 53.84163071 -26.60712921 54.67935516 -27.46925354 55.54246521 C-29.22868104 57.30256935 -30.98935653 59.06142677 -32.7512207 60.8190918 C-35.42969411 63.49220972 -38.10278873 66.17062251 -40.77539062 68.84960938 C-42.49447115 70.56802903 -44.21386189 72.28613842 -45.93359375 74.00390625 C-46.72342148 74.79575821 -47.51324921 75.58761017 -48.32701111 76.40345764 C-52.56905537 80.62785221 -56.8883202 84.67097914 -61.47108459 88.52500916 C-63.11859226 89.88010031 -63.11859226 89.88010031 -64 91.9375 C-63.60061233 94.03571215 -63.60061233 94.03571215 -63 95.9375 C-66.89759494 94.63830169 -67.34898764 93.1630712 -69.3125 89.625 C-69.86550781 88.65949219 -70.41851562 87.69398438 -70.98828125 86.69921875 C-72 83.9375 -72 83.9375 -71.375 82.05395508 C-69.59243547 79.31016035 -67.47497411 77.47178463 -65.01171875 75.3125 C-57.13063257 68.2696229 -49.67974044 60.80330972 -42.20825195 53.33105469 C-39.81155993 50.93656079 -37.40695019 48.55021124 -35.00195312 46.1640625 C-15.69661467 28.23595556 -15.69661467 28.23595556 -5.51953125 4.84765625 C-4.69772208 1.82611727 -3.23661445 -0.1011442 0 0 Z " fill="#08F429" transform="translate(480,102.0625)"/>
<path d="M0 0 C2.81519174 1.95839425 3.12195918 3.43735544 4.06640625 6.82421875 C4.3950455 10.56217011 4.09546635 10.88341945 1.52734375 14.01953125 C0.35246226 14.97780133 -0.84609313 15.90752355 -2.0625 16.8125 C-2.69720215 17.31894043 -3.3319043 17.82538086 -3.98583984 18.34716797 C-5.97198594 19.92363774 -7.98385169 21.46217636 -10 23 C-11.2117252 23.95177253 -12.42143819 24.90611367 -13.62890625 25.86328125 C-15.3768584 27.24792782 -17.12766278 28.62705333 -18.89355469 29.98876953 C-22.67951377 32.91006032 -26.24480139 35.99944735 -29.8125 39.1875 C-35.11811492 43.68124902 -40.64344549 46.42927127 -46.97460938 49.23632812 C-54.48686417 52.57890556 -60.04792132 56.34030799 -65 63 C-71.70181642 70.42282313 -82.34863383 75.16435591 -92.2890625 76.25 C-98.9432287 76.57961814 -104.0360654 74.84238585 -110 72 C-110 71.67 -110 71.34 -110 71 C-109.20078125 70.91363281 -108.4015625 70.82726562 -107.578125 70.73828125 C-82.92638068 67.58447828 -62.57777338 50.56710099 -43.9453125 35.2265625 C-40.30371206 32.23251583 -36.59983049 29.32683979 -32.875 26.4375 C-27.48109028 22.24334139 -22.29479008 17.84879326 -17.13964844 13.3659668 C-11.63743888 8.6152671 -5.88360002 4.26722639 0 0 Z " fill="#08F429" transform="translate(386,203)"/>
<path d="M0 0 C3.78556979 1.70155508 5.12442627 3.24885253 7 7 C8.94876976 13.4242203 8.8828098 20.72960496 6.23828125 26.93359375 C3.50250734 31.49897041 -0.29618111 35.21552844 -4 39 C-4.61488281 39.64195313 -5.22976563 40.28390625 -5.86328125 40.9453125 C-8.85017702 44.00773897 -11.96169251 46.87830971 -15.1875 49.6875 C-15.85136719 50.26886719 -16.51523437 50.85023437 -17.19921875 51.44921875 C-18.6079106 52.66234384 -20.048322 53.8386576 -21.5 55 C-23.74973001 57.99964001 -23.2221314 60.30659488 -23 64 C-22.12322055 67.65734728 -22.12322055 67.65734728 -20.8125 71.3125 C-20.59053955 71.96186523 -20.3685791 72.61123047 -20.13989258 73.28027344 C-18.4497582 78.08275017 -16.38328335 82.58655197 -13.91796875 87.046875 C-13 89 -13 89 -13 92 C-13.66 92 -14.32 92 -15 92 C-32.2633298 60.31943499 -32.2633298 60.31943499 -31 49 C-28.875 46.15625 -28.875 46.15625 -26 43.5 C-25.49887695 43.02788086 -24.99775391 42.55576172 -24.48144531 42.06933594 C-21.01513143 38.82894155 -17.439965 35.70447807 -13.84375 32.609375 C-7.59146576 27.15187265 -1.54966741 21.53069341 0 13 C0.06790675 10.75092848 0.08499984 8.49998395 0.0625 6.25 C0.05347656 5.07953125 0.04445313 3.9090625 0.03515625 2.703125 C0.02355469 1.81109375 0.01195312 0.9190625 0 0 Z " fill="#08F429" transform="translate(410,72)"/>
</svg>
