<?xml version="1.0" encoding="UTF-8"?>
<svg version="1.1" xmlns="http://www.w3.org/2000/svg" width="554" height="327">
<path d="M0 0 C2.38063785 0.5263315 4.75678496 1.07324561 7.12890625 1.63671875 C10.42250856 2.4698354 10.42250856 2.4698354 13.23046875 2.82421875 C15.88903718 3.33495574 17.38787585 3.81995416 19.5703125 5.44921875 C24.60180399 13.06779093 27.71951402 20.74214666 27.66796875 29.96875 C27.66474609 30.99033203 27.66152344 32.01191406 27.65820312 33.06445312 C27.64982422 34.11955078 27.64144531 35.17464844 27.6328125 36.26171875 C27.62830078 37.33615234 27.62378906 38.41058594 27.61914062 39.51757812 C27.60738979 42.16151558 27.59096037 44.80533827 27.5703125 47.44921875 C28.46762085 46.60460083 28.46762085 46.60460083 29.38305664 45.74291992 C41.66065355 34.29483318 41.66065355 34.29483318 50.2578125 33.94921875 C54.30480948 34.20041167 57.03223568 35.42746057 60.5703125 37.44921875 C62.27456715 38.08525637 63.98329191 38.70939092 65.6953125 39.32421875 C71.09208991 41.46348187 73.36820453 43.8646866 75.8203125 49.13671875 C77.47144371 56.42921493 77.49494479 63.89991124 73.5703125 70.44921875 C70.77041692 73.98681137 67.72418216 77.22667186 64.5703125 80.44921875 C63.64798828 81.41214844 63.64798828 81.41214844 62.70703125 82.39453125 C59.72013548 85.45695772 56.60861999 88.32752846 53.3828125 91.13671875 C52.71894531 91.71808594 52.05507813 92.29945312 51.37109375 92.8984375 C49.9624019 94.11156259 48.5219905 95.28787635 47.0703125 96.44921875 C44.83375959 99.4312893 45.37333819 101.78246613 45.5703125 105.44921875 C50.14207619 126.92587609 64.32623278 150.17778399 77.5703125 167.44921875 C78.8903125 166.78921875 80.2103125 166.12921875 81.5703125 165.44921875 C80.30288988 162.07140217 78.85109621 159.09113143 76.92578125 156.04296875 C76.41571533 155.2226416 75.90564941 154.40231445 75.38012695 153.55712891 C74.84476318 152.69651855 74.30939941 151.8359082 73.7578125 150.94921875 C62.72811312 132.90002406 58.81863416 116.20494513 63.53515625 95.2109375 C68.75712135 76.23451338 79.10413965 58.99650913 96.28515625 48.7265625 C100.87019762 46.16364194 104.34674566 45.97354825 109.5703125 46.44921875 C114.89367466 48.25715307 116.6294415 50.80074524 119.5703125 55.44921875 C120.4159375 56.06796875 121.2615625 56.68671875 122.1328125 57.32421875 C126.10024464 60.78300574 127.25824736 64.75605388 127.85546875 69.91015625 C128.16383633 78.62489225 126.08753232 83.99780607 120.3203125 90.51171875 C118.75041987 92.17037752 117.16771244 93.81703456 115.5703125 95.44921875 C114.64798828 96.41214844 114.64798828 96.41214844 113.70703125 97.39453125 C110.72013548 100.45695772 107.60861999 103.32752846 104.3828125 106.13671875 C103.71894531 106.71808594 103.05507813 107.29945312 102.37109375 107.8984375 C100.9624019 109.11156259 99.5219905 110.28787635 98.0703125 111.44921875 C95.82221811 114.44667793 96.35189828 116.75877165 96.5703125 120.44921875 C98.87466514 129.78898431 102.59530106 138.22591805 107.5703125 146.44921875 C126.24405198 131.35778847 143.76104506 115.33661534 160.7578125 98.38671875 C161.31336823 97.83384186 161.86892395 97.28096497 162.4413147 96.71133423 C164.0433047 95.11521177 165.64143747 93.51533186 167.23828125 91.9140625 C168.16922607 90.98198975 169.1001709 90.04991699 170.05932617 89.08959961 C172.38856298 86.64033407 174.50565081 84.12296622 176.5703125 81.44921875 C179.32488968 81.82916043 180.39051824 82.25658205 182.3203125 84.32421875 C183.5703125 86.44921875 183.5703125 86.44921875 183.5703125 89.44921875 C184.1478125 88.93359375 184.7253125 88.41796875 185.3203125 87.88671875 C187.5703125 86.44921875 187.5703125 86.44921875 189.6328125 86.51171875 C192.13772378 87.7237726 193.11787077 89.09764643 194.5703125 91.44921875 C196.13656245 96.14796859 196.38643009 99.41515468 194.546875 104 C191.4537672 110.04095916 187.67857216 114.95968603 183.01171875 119.8671875 C181.10053474 121.8884557 179.28498568 123.93402587 177.47607422 126.04394531 C173.38535652 130.72832966 169.03852785 135.12506836 164.63671875 139.515625 C163.79995102 140.35334946 162.96318329 141.19107391 162.10105896 142.05418396 C160.34163146 143.8142881 158.58095597 145.57314552 156.8190918 147.33081055 C154.14061839 150.00392847 151.46752377 152.68234126 148.79492188 155.36132812 C147.07584135 157.07974778 145.35645061 158.79785717 143.63671875 160.515625 C142.84689102 161.30747696 142.05706329 162.09932892 141.24330139 162.91517639 C137.00125713 167.13957096 132.6819923 171.18269789 128.09922791 175.03672791 C126.45172024 176.39181906 126.45172024 176.39181906 125.5703125 178.44921875 C125.96970017 180.5474309 125.96970017 180.5474309 126.5703125 182.44921875 C149.39613347 170.99839162 169.25858202 153.86421372 188.04345703 136.74072266 C189.59987823 135.32926668 191.16384277 133.92601451 192.73999023 132.53662109 C199.63035674 126.44504074 206.15175093 120.02117416 212.640625 113.50927734 C214.45979727 111.68469087 216.28432718 109.86558247 218.109375 108.046875 C219.28157117 106.87401882 220.45345753 105.7008529 221.625 104.52734375 C222.43286453 103.72251556 222.43286453 103.72251556 223.25704956 102.90142822 C226.24477795 99.89516017 228.98319156 96.81751833 231.5703125 93.44921875 C234.32488968 93.82916043 235.39051824 94.25658205 237.3203125 96.32421875 C238.5703125 98.44921875 238.5703125 98.44921875 238.5703125 101.44921875 C239.1684375 101.53171875 239.7665625 101.61421875 240.3828125 101.69921875 C243.21716653 102.67099728 244.0157168 103.93225429 245.5703125 106.44921875 C247.13656245 111.14796859 247.38643009 114.41515468 245.546875 119 C242.4537672 125.04095916 238.67857216 129.95968603 234.01171875 134.8671875 C232.10053474 136.8884557 230.28498568 138.93402587 228.47607422 141.04394531 C224.38535652 145.72832966 220.03852785 150.12506836 215.63671875 154.515625 C214.79995102 155.35334946 213.96318329 156.19107391 213.10105896 157.05418396 C211.34163146 158.8142881 209.58095597 160.57314552 207.8190918 162.33081055 C205.14061839 165.00392847 202.46752377 167.68234126 199.79492188 170.36132812 C198.07584135 172.07974778 196.35645061 173.79785717 194.63671875 175.515625 C193.84689102 176.30747696 193.05706329 177.09932892 192.24330139 177.91517639 C187.51110802 182.62768073 182.6472427 187.11147838 177.5703125 191.44921875 C176.45231708 192.42224958 175.33499805 193.39605886 174.21875 194.37109375 C167.85704742 199.88008812 161.40110197 205.21625652 154.75146484 210.37402344 C150.77242465 213.47142662 146.89957598 216.6689036 143.0703125 219.94921875 C138.08492519 224.219051 132.98079972 228.3014678 127.79638672 232.32641602 C123.83791703 235.41380337 119.99862811 238.61097307 116.1953125 241.88671875 C102.29605067 253.78453803 87.47928931 264.60743276 71.1328125 272.88671875 C70.15731445 273.38220215 70.15731445 273.38220215 69.16210938 273.88769531 C60.93401354 277.92563546 52.86687057 280.01889895 43.8125 277.76171875 C39.48358852 276.24723077 37.14323214 275.41725539 34.7578125 271.38671875 C34.3659375 270.41734375 33.9740625 269.44796875 33.5703125 268.44921875 C31.03842602 266.69598938 31.03842602 266.69598938 28.5703125 265.44921875 C27.07532337 262.4592405 27.45453804 259.748791 27.5703125 256.44921875 C27.9003125 255.45921875 28.2303125 254.46921875 28.5703125 253.44921875 C27.49652344 254.00351562 26.42273438 254.5578125 25.31640625 255.12890625 C23.88037359 255.86100133 22.44416632 256.59275398 21.0078125 257.32421875 C19.95110352 257.87142578 19.95110352 257.87142578 18.87304688 258.4296875 C10.66070105 262.59262778 2.28327598 265.33958927 -6.87109375 262.76171875 C-9.45596931 261.76594004 -11.93250294 260.64845233 -14.4296875 259.44921875 C-15.50605469 258.94390625 -16.58242188 258.43859375 -17.69140625 257.91796875 C-26.26519842 253.77819691 -26.26519842 253.77819691 -27.4296875 251.44921875 C-27.93201313 245.17014839 -27.03418401 239.66614209 -23.01245117 234.69873047 C-18.68274107 230.29092177 -14.31361269 227.33128946 -8.8046875 224.57421875 C-7.9892749 224.15422607 -7.1738623 223.7342334 -6.33374023 223.30151367 C-0.16568007 220.18030544 6.13392644 217.4316586 12.5078125 214.76171875 C30.78347477 207.31381228 30.78347477 207.31381228 43.0078125 192.44921875 C44.37546734 185.1550596 43.64324609 180.30031218 40.1953125 173.88671875 C39.83590576 173.19400879 39.47649902 172.50129883 39.10620117 171.78759766 C36.28151169 166.47416037 33.07017039 161.49063421 29.65283203 156.54370117 C23.91225374 148.17776507 18.92313085 139.34123118 13.83203125 130.57128906 C12.79757327 128.83144604 11.69310532 127.13340797 10.5703125 125.44921875 C10.39604736 126.0827124 10.22178223 126.71620605 10.04223633 127.36889648 C1.47033618 158.34319638 -8.25781062 188.91067763 -19.1796875 219.13671875 C-19.52554901 220.0967984 -19.87141052 221.05687805 -20.22775269 222.04605103 C-24.02335774 232.55309243 -27.97941322 242.98200403 -32.1953125 253.328125 C-32.55913025 254.2222258 -32.922948 255.1163266 -33.29779053 256.03752136 C-39.48083518 271.03865886 -46.64125101 286.50110875 -62.1171875 293.69921875 C-69.19889184 295.30262351 -75.6376087 294.94426811 -82.4296875 292.44921875 C-85.42501864 291.98392459 -88.42089016 291.57529551 -91.4296875 291.20703125 C-105.06772549 287.76200603 -114.80086022 268.79298176 -121.64746094 257.42773438 C-134.17063986 236.17566764 -144.16164064 213.65940665 -152.4296875 190.44921875 C-152.65593811 189.81536255 -152.88218872 189.18150635 -153.11529541 188.52844238 C-162.59581873 161.89217725 -170.11548939 134.74748688 -177.4296875 107.44921875 C-177.65138107 108.20564163 -177.87307465 108.96206451 -178.10148621 109.7414093 C-184.52358879 131.65009618 -190.96371931 153.55343563 -197.4296875 175.44921875 C-197.93066956 177.14606812 -197.93066956 177.14606812 -198.44177246 178.87719727 C-206.95636285 207.69103976 -216.08172573 236.30100744 -225.33984375 264.8828125 C-225.69348999 265.97475922 -226.04713623 267.06670593 -226.41149902 268.19174194 C-227.08319338 270.26101518 -227.75699052 272.32960732 -228.43313599 274.39743042 C-229.12443958 276.51444316 -229.80944995 278.63351725 -230.48947144 280.75418091 C-230.83511139 281.81893646 -231.18075134 282.88369202 -231.53686523 283.98071289 C-231.84365707 284.93393936 -232.15044891 285.88716583 -232.46653748 286.86927795 C-234.35030864 291.91523961 -236.79937801 295.37390824 -241.3671875 298.38671875 C-244.69813906 299.54235501 -246.93479362 299.90507447 -250.4296875 299.44921875 C-251.05101562 298.94132812 -251.67234375 298.4334375 -252.3125 297.91015625 C-254.94656547 296.09255388 -256.05929844 296.32159205 -259.1796875 296.69921875 C-263.43339052 296.82469672 -265.52176037 296.17884356 -268.8046875 293.44921875 C-272.74496086 289.46099075 -276.33036581 285.21993463 -276.4841156 279.38287354 C-275.68609279 271.51444855 -273.71182713 263.98414062 -271.65234375 256.37109375 C-271.45719744 255.64136101 -271.26205112 254.91162827 -271.06099129 254.15978241 C-266.13139018 235.76484363 -260.44015797 217.60716976 -254.72882843 199.44324493 C-253.25459872 194.74833691 -251.78930422 190.05064325 -250.32373047 185.35302734 C-249.72187225 183.42416087 -249.12000453 181.49529736 -248.51812744 179.56643677 C-248.21841286 178.60588505 -247.91869827 177.64533333 -247.60990143 176.65567398 C-246.69864404 173.73644017 -245.78643528 170.81750522 -244.8739624 167.89865112 C-238.80550462 148.48228218 -232.80988412 129.04370695 -226.83140945 109.59947205 C-225.81255676 106.28701111 -224.79233373 102.97497295 -223.77211857 99.66293144 C-222.8114518 96.54340604 -221.85178891 93.42357254 -220.89245033 90.30363846 C-220.45569261 88.88363706 -220.01863701 87.46372723 -219.58122826 86.04392624 C-216.79037044 76.99033428 -216.79037044 76.99033428 -214.12225342 67.90008545 C-213.90299383 67.13773779 -213.68373425 66.37539013 -213.45783043 65.58994102 C-213.03903492 64.12858554 -212.62487333 62.66589059 -212.21631813 61.20163918 C-209.56485064 51.96196658 -205.78354597 45.33543786 -197.4296875 40.44921875 C-194.53442231 39.48413035 -192.57174631 39.28464473 -189.5546875 39.26171875 C-188.71164063 39.24753906 -187.86859375 39.23335937 -187 39.21875 C-184.14131794 39.4750756 -182.07775738 40.36962103 -179.4296875 41.44921875 C-177.5184058 41.73751264 -175.60076761 41.9857654 -173.6796875 42.19921875 C-167.32113499 43.21098353 -163.38325994 45.45033482 -158.4296875 49.44921875 C-157.67945313 49.9803125 -156.92921875 50.51140625 -156.15625 51.05859375 C-151.23085873 54.85770101 -148.24828259 59.08795717 -145.54296875 64.63671875 C-145.02618561 65.68670547 -145.02618561 65.68670547 -144.4989624 66.75790405 C-140.72119322 74.6351569 -137.91758456 82.79100289 -135.1796875 91.07421875 C-134.62247081 92.73036026 -134.0645939 94.38627976 -133.50610352 96.04199219 C-129.64382945 107.547536 -125.98647112 119.11542385 -122.3671875 130.69921875 C-110.54747817 168.5275351 -97.69769489 207.19005732 -77.4296875 241.44921875 C-77.18476563 240.59585938 -76.93984375 239.7425 -76.6875 238.86328125 C-74.11492311 230.25845509 -71.10187375 221.92773144 -67.8046875 213.57421875 C-44.60222732 154.10733343 -25.57097533 87.84154664 -19.50366211 24.23071289 C-17.87065283 7.90725297 -17.87065283 7.90725297 -13.1796875 1.26171875 C-8.90564711 -1.55526242 -4.92719889 -0.79126998 0 0 Z M92.8828125 203.26171875 C86.4669278 208.75350115 79.87146519 213.98115701 73.20849609 219.16796875 C69.29995453 222.2249026 65.43709552 225.33975498 61.5703125 228.44921875 C65.0670977 229.61481382 65.50495515 229.31817106 68.703125 227.82421875 C69.50540527 227.45079346 70.30768555 227.07736816 71.13427734 226.69262695 C71.97941895 226.28230225 72.82456055 225.87197754 73.6953125 225.44921875 C74.55463379 225.03567139 75.41395508 224.62212402 76.29931641 224.19604492 C82.2967871 221.23836471 87.73250108 218.12766697 92.5703125 213.44921875 C93.08722656 212.97097656 93.60414063 212.49273437 94.13671875 212 C97.94645059 208.03831304 98.78923338 203.69527253 99.5703125 198.44921875 C97.24182693 198.44921875 94.64775617 201.7356051 92.8828125 203.26171875 Z " fill="#1695EA" transform="translate(290.4296875,15.55078125)"/>
</svg>
